<svg width="52" height="62" viewBox="0 0 52 62" fill="none" xmlns="http://www.w3.org/2000/svg">
<path d="M19.0904 22.3403C19.2178 22.1497 19.3133 21.9272 19.377 21.7048L18.1989 23.1666C18.1989 23.1666 18.4855 22.9759 18.6128 22.8488C18.8039 22.6899 18.9631 22.4992 19.0904 22.3086V22.3403Z" fill="black"/>
<path d="M49.1472 31.8421C49.4975 31.3018 49.9432 30.8569 50.2935 30.3167C50.6437 29.7765 50.9302 29.1727 50.8984 28.5371C51.4715 29.0456 52.0765 29.7129 51.981 30.4756C51.9491 30.7616 51.7899 31.0158 51.7581 31.3018C51.6944 31.715 51.7899 32.1281 51.8854 32.5094C52.0446 33.3039 52.0765 34.1619 51.7263 34.8928C51.4079 35.5602 50.8029 35.9733 50.2298 36.3864C49.5611 36.8631 49.0835 37.3715 48.6696 36.4817C48.001 35.0835 48.3512 33.0814 49.1791 31.8421H49.1472Z" fill="black"/>
<path d="M14.1234 6.35573C13.9324 6.95953 13.614 7.53154 13.4229 8.13533C13.2319 8.73912 13.1045 9.40647 13.2956 10.0103C12.5951 9.6607 11.8309 9.18402 11.7354 8.42134C11.7036 8.13533 11.7672 7.84932 11.7354 7.56332C11.7036 7.1502 11.4807 6.80063 11.2897 6.41929C10.9394 5.68838 10.6847 4.89392 10.8439 4.09946C11.0031 3.36855 11.4488 2.79654 11.8946 2.2563C12.404 1.62073 12.7224 0.985161 13.3911 1.77962C14.41 2.95543 14.5692 4.95748 14.1234 6.38751V6.35573Z" fill="black"/>
<path d="M48.2876 39.6914C46.8866 40.1363 45.7404 41.3439 45.3902 42.7739C45.1991 43.5684 45.1991 44.4582 44.8489 45.1891C44.2121 46.5555 42.3654 47.4771 41.1873 46.1106C41.0599 45.9518 40.9326 45.7611 40.9326 45.5386C40.9326 45.3162 41.0281 45.1255 41.0918 44.9348C41.7286 43.5366 42.238 42.043 42.5564 40.5494C42.8748 39.0558 43.0022 37.5304 42.8111 36.0369C42.6201 34.5115 41.9515 32.8272 42.3335 31.2701C42.5883 30.1578 43.5116 29.3634 43.83 28.3465C43.9892 27.8698 43.7345 27.3613 43.8937 26.8846C44.0211 26.5351 44.3076 26.3126 44.5942 26.122C45.0081 25.8359 45.4538 25.5817 45.8996 25.391C46.1862 25.2639 46.5046 25.105 46.6638 24.8508C46.823 24.5966 46.823 24.1517 46.5682 24.0246C46.2498 23.8657 45.8996 24.1199 45.5494 24.2788C45.4538 24.3424 45.3583 24.3741 45.231 24.4059C44.8807 24.5012 44.4987 24.533 44.1166 24.5648C41.8559 24.9144 40.5823 26.5351 39.5316 28.3782C39.1177 29.1091 38.6401 29.84 37.9396 30.2849C37.2392 30.7298 36.2203 30.857 35.5835 30.2849C35.0741 29.8718 34.883 29.1409 34.7556 28.4736C34.6601 27.9016 34.6283 27.266 34.883 26.7575C35.0422 26.4397 35.2969 26.1855 35.5516 25.9631C37.08 24.5966 39.0222 23.7703 40.8371 22.817C42.6519 21.8636 44.8807 20.4654 45.6449 18.4315C45.8359 17.9231 45.7722 17.3829 45.7086 16.8426C45.613 16.0799 45.5175 15.2855 45.2946 14.5546C45.0399 13.6965 44.626 12.775 45.0399 12.0123C44.4031 12.4254 43.7345 12.8703 43.3843 13.5377C43.0022 14.2368 43.0022 15.063 42.6519 15.7622C42.238 16.5566 41.3783 17.0969 40.4868 17.0651C39.5953 17.0651 38.7356 16.4931 38.3536 15.6986C38.1307 15.2537 38.067 14.7452 38.067 14.2686C38.067 11.4403 40.5187 10.2962 42.1425 8.38953C43.2569 7.08661 44.1803 5.59302 44.8489 4.0041C44.9762 3.68631 45.1036 3.36852 45.0718 3.05074C45.0718 2.6694 44.8489 2.28805 44.7215 1.90671C44.5305 1.27114 44.6578 0.540235 45.0399 0C43.6071 0.413121 41.9515 1.04869 41.5375 2.47873C41.3783 3.05074 41.442 3.71809 41.2192 4.25832C40.8689 5.11634 39.9456 5.56124 39.054 5.84725C38.067 6.13326 37.0481 6.29215 36.0611 6.29215C34.883 6.29215 33.5776 6.16504 32.5905 6.86416C32.1448 7.18195 31.7945 7.65863 31.508 8.1353C31.1896 8.67554 30.8393 9.21577 30.712 9.81957C30.3936 10.9954 30.712 12.2983 30.1707 13.3788C29.5339 14.5863 29.5021 16.5248 28.3877 17.4146C28.1011 17.6689 27.719 17.8278 27.5598 18.1773C27.4962 18.3362 27.4643 18.5269 27.4007 18.7176C27.2415 19.226 26.7639 19.5756 26.3181 19.8616C26.1271 19.9887 25.936 20.1158 25.745 20.0523C25.5858 20.0205 25.4584 19.8934 25.3311 19.7662C24.9808 19.3849 24.6306 18.9718 24.4714 18.4633C24.1848 17.4464 24.8535 16.5566 24.949 15.5715C25.0445 14.5863 25.0445 13.8554 25.4903 12.9021C25.8405 12.1394 26.2226 11.3449 26.8912 10.8047C27.1459 10.5823 27.4643 10.4234 27.5917 10.1056C27.7509 9.78779 27.5917 9.34289 27.2414 9.34289C27.0822 9.34289 26.9549 9.43822 26.8275 9.56534C25.9679 10.2327 24.949 10.7411 23.8983 11.0272C23.5162 11.1225 23.1341 11.2178 22.7839 11.4085C22.2426 11.7263 21.8605 12.2665 21.4466 12.7432C20.8416 13.4423 20.0775 14.0779 19.7591 14.9359C19.5362 15.5397 19.5999 16.2071 19.6317 16.8426C19.6954 18.3362 19.6317 19.8616 19.4725 21.3552C19.4725 21.5458 19.4407 21.7365 19.3452 21.8954C19.2496 22.0861 19.0905 22.2132 18.9313 22.3085C17.5303 23.4208 15.4925 23.9928 14.1871 22.4356C13.5822 21.7365 13.3593 20.7514 13.5185 19.8298C13.7095 18.7811 14.3463 17.8913 14.7284 16.8744C15.1105 15.8893 15.1105 14.5863 14.2826 13.9508C14.3145 15.5397 13.2956 16.9697 12.0857 18.0184C10.8758 19.0353 9.44297 19.798 8.23306 20.8467C6.54555 22.3085 5.36747 24.247 4.31675 26.2173C2.4382 29.6494 0.750688 33.3039 0.33677 37.1809C0.33677 37.4669 0.273095 37.7529 0.273095 38.0389C0.209415 38.3885 0.145732 38.738 0.113892 39.0876C-0.0453074 41.3757 0.113895 43.7273 0.782532 45.92C2.27901 50.8139 6.22715 54.6273 10.621 57.2967C12.4678 58.4089 14.41 59.3623 16.4796 60.0297C20.6506 61.3961 24.6943 61.3326 28.8971 60.411C30.9667 59.9661 32.8134 59.9025 34.8193 59.0127C36.6979 58.1547 38.4491 57.0742 40.1684 55.9302C41.8559 54.818 43.5116 53.7057 44.9126 52.2757C46.3135 50.8457 47.4598 49.0978 47.8418 47.1276C48.0966 45.7611 48.001 44.3946 47.9055 43.0599C47.9055 42.7739 48.2558 39.6596 48.3194 39.6278L48.2876 39.6914ZM21.4466 51.0999C21.4466 53.8011 19.8228 55.7396 16.9572 55.7396C14.0916 55.7396 12.4678 53.8328 12.4678 51.0999V30.3803C12.4678 27.6791 14.0916 25.7406 16.9572 25.7406C19.8228 25.7406 21.4466 27.6473 21.4466 30.3803V31.8739H18.2626V30.8252C18.2626 30.1578 18.1989 28.8867 16.9572 28.8867C15.7154 28.8867 15.6517 30.1578 15.6517 30.8252V50.655C15.6517 51.3223 15.7154 52.5935 16.9572 52.5935C18.1989 52.5935 18.2626 51.3223 18.2626 50.655V49.6063H21.4466V51.0999ZM22.3063 45.0937C22.3063 46.1106 21.6058 47.0005 20.2367 47.0005H18.4855V33.9713H20.2367C21.6376 33.9713 22.3063 34.861 22.3063 35.878V45.0937ZM28.6106 55.7396H24.4395V25.7406H28.324C31.6035 25.7406 32.9726 27.6155 32.9726 30.2214C32.9726 32.4459 31.8901 33.1768 31.699 33.3039C33.0681 34.1619 33.4821 49.6063 33.4821 50.941C33.4821 53.5786 31.8582 55.7396 28.5787 55.7396H28.6106Z" fill="black"/>
<path d="M28.6106 35.1788H27.528V52.657H28.6106C29.8842 52.657 30.2344 51.6719 30.2344 50.9092C30.2344 50.1465 29.8523 35.1788 28.6106 35.1788Z" fill="black"/>
<path d="M29.8205 30.5074C29.8205 29.9354 29.6931 28.8549 28.2603 28.8549H27.528V32.1599H28.2603C29.6931 32.1599 29.8205 31.0794 29.8205 30.5074Z" fill="black"/>
<path d="M20.1093 35.3377H19.8228V45.6976H20.1093C20.9371 45.6976 20.969 45.0302 20.969 44.7442V36.2593C20.969 35.9733 20.969 35.306 20.1093 35.306V35.3377Z" fill="black"/>
</svg>
