<svg width="202" height="132" viewBox="0 0 202 132" fill="none" xmlns="http://www.w3.org/2000/svg">
<g clip-path="url(#clip0_38_12)">
<path d="M201.82 22.7398C201.859 22.5343 201.961 22.3444 201.992 22.1389C202.074 21.5846 201.616 21.1077 201.201 20.7278C201.225 21.1892 201.013 21.635 200.751 22.0187C200.485 22.3986 200.164 22.7398 199.909 23.1274C199.31 24.0423 199.044 25.4844 199.537 26.5078C199.858 27.1706 200.199 26.783 200.692 26.4457C201.123 26.1472 201.558 25.8294 201.796 25.3526C202.059 24.8253 202.043 24.2012 201.922 23.6275C201.859 23.3368 201.773 23.0383 201.828 22.7436L201.82 22.7398Z" fill="#94C5C6"/>
<path d="M172.439 5.42716C172.459 5.6365 172.404 5.84583 172.431 6.05129C172.498 6.60951 173.062 6.95064 173.567 7.21037C173.422 6.76845 173.508 6.28388 173.665 5.84971C173.821 5.41166 174.045 5.00074 174.185 4.55882C174.522 3.52378 174.401 2.05845 173.657 1.20174C173.171 0.643515 172.944 1.10482 172.561 1.55838C172.224 1.95766 171.887 2.37633 171.781 2.89966C171.664 3.47726 171.848 4.07425 172.114 4.59758C172.251 4.86507 172.412 5.12867 172.439 5.42716Z" fill="#94C5C6"/>
<path d="M197.141 31.0898C196.992 31.6752 197.008 32.3071 196.753 32.8575C196.295 33.8577 194.941 34.5244 194.068 33.5243C193.966 33.408 193.88 33.2684 193.872 33.1173C193.864 32.9661 193.931 32.8226 193.997 32.687C194.475 31.6674 194.835 30.5898 195.066 29.4888C195.293 28.4111 195.395 27.2986 195.25 26.2054C195.101 25.0851 194.624 23.8678 194.89 22.732C195.082 21.9179 195.743 21.3365 195.994 20.6038C196.107 20.2665 195.927 19.8866 196.041 19.5494C196.123 19.3052 196.346 19.1346 196.566 18.9912C196.871 18.7896 197.188 18.6074 197.521 18.4484C197.732 18.3477 197.955 18.2469 198.089 18.0569C198.222 17.867 198.214 17.5568 198.01 17.4483C197.775 17.3204 197.509 17.5258 197.27 17.646C197.196 17.6809 197.122 17.708 197.043 17.7313C196.785 17.8049 196.503 17.8166 196.233 17.8592C194.577 18.1073 193.633 19.2897 192.862 20.6387C192.556 21.1698 192.212 21.7047 191.691 22.0342C191.17 22.3637 190.438 22.4413 189.96 22.0536C189.577 21.7435 189.44 21.2279 189.365 20.7395C189.299 20.3208 189.267 19.8711 189.455 19.4874C189.565 19.2625 189.749 19.0764 189.937 18.9059C191.053 17.9019 192.474 17.3126 193.813 16.6187C195.156 15.9248 196.789 14.913 197.333 13.4206C197.466 13.0523 197.423 12.6491 197.372 12.2576C197.302 11.6994 197.235 11.1334 197.071 10.5946C196.887 9.98209 196.585 9.29982 196.894 8.73384C196.429 9.04009 195.943 9.36184 195.681 9.85028C195.407 10.3542 195.407 10.9629 195.144 11.4707C194.847 12.0483 194.205 12.4321 193.551 12.4243C192.897 12.4166 192.263 12.0173 191.981 11.4319C191.824 11.1063 191.769 10.7419 191.765 10.3814C191.75 8.31518 193.574 7.5011 194.761 6.10943C195.579 5.15192 196.248 4.07037 196.738 2.91516C196.832 2.69032 196.922 2.45385 196.91 2.2135C196.894 1.92664 196.742 1.66691 196.66 1.3878C196.522 0.918741 196.616 0.387655 196.906 -0.00775146C195.853 0.298495 194.643 0.755926 194.346 1.80259C194.224 2.22901 194.283 2.6942 194.118 3.10511C193.868 3.73311 193.175 4.06261 192.521 4.25256C191.804 4.4619 191.061 4.57044 190.313 4.58207C189.44 4.5937 188.48 4.49291 187.768 4.99298C187.431 5.22945 187.192 5.57834 186.973 5.92335C186.726 6.31101 186.491 6.71029 186.378 7.15221C186.155 8.00505 186.386 8.96643 185.975 9.74949C185.505 10.6372 185.477 12.0367 184.675 12.6918C184.459 12.8701 184.181 12.998 184.064 13.25C184.009 13.3702 183.997 13.5059 183.958 13.6338C183.841 14.0021 183.496 14.2502 183.175 14.4711C183.046 14.5603 182.897 14.6494 182.744 14.6184C182.623 14.5952 182.533 14.4983 182.451 14.4052C182.192 14.1222 181.926 13.8237 181.824 13.4555C181.617 12.7228 182.098 12.0599 182.165 11.3505C182.235 10.6295 182.239 10.11 182.568 9.40448C182.831 8.84626 183.109 8.26478 183.59 7.87325C183.782 7.71819 184.009 7.58251 184.115 7.36155C184.22 7.14058 184.103 6.79945 183.856 6.80333C183.739 6.80333 183.637 6.88086 183.547 6.95451C182.909 7.44295 182.177 7.81122 181.398 8.02831C181.12 8.10584 180.834 8.16787 180.579 8.30742C180.176 8.53226 179.906 8.92767 179.604 9.27268C179.158 9.78438 178.594 10.2341 178.371 10.8776C178.218 11.3234 178.254 11.8041 178.273 12.2731C178.32 13.3663 178.281 14.4634 178.156 15.5527C178.14 15.6922 178.12 15.8318 178.054 15.952C178.011 16.0295 177.948 16.0954 177.878 16.1535C177.96 16.0217 178.026 15.8783 178.077 15.7271L177.49 16.4443C176.48 17.1188 175.153 17.4018 174.268 16.3435C173.833 15.8279 173.661 15.1146 173.774 14.4517C173.907 13.6881 174.385 13.0329 174.663 12.308C174.941 11.5831 174.953 10.6372 174.33 10.1682C174.366 11.3234 173.614 12.37 172.725 13.1221C171.836 13.8741 170.787 14.4207 169.902 15.1766C168.665 16.2349 167.807 17.6538 167.024 19.0764C166.496 20.0339 165.995 21.0108 165.556 22.011C165.341 22.5033 165.141 22.9995 164.961 23.5073C164.843 23.8407 164.479 24.4571 164.636 24.7982C164.753 25.0502 165.133 25.1936 165.372 25.3138C165.728 25.496 165.952 25.651 166.351 25.5658C166.832 25.465 167.338 25.496 167.827 25.5192C168.113 25.5348 168.383 25.5464 168.653 25.5348C169.24 25.5115 169.843 25.465 170.427 25.4185C170.807 25.3874 171.186 25.3564 171.566 25.3332L177.557 24.9571C179.197 24.8525 180.892 24.7478 182.549 24.554C182.948 24.5075 183.336 24.461 183.727 24.5462C184.224 24.6587 184.612 24.9804 184.733 25.3913C184.823 25.6859 184.769 25.9767 184.718 26.2325C184.686 26.3953 184.659 26.5504 184.667 26.69C184.679 26.8644 184.745 27.0427 184.82 27.2327C184.847 27.3025 184.874 27.3761 184.898 27.4459C185.098 28.0274 185.07 28.5972 185.043 29.1477C185.027 29.4888 185.007 29.8067 185.043 30.1285C185.098 30.644 185.101 31.1945 185.105 31.7256C185.113 32.5203 185.117 33.3421 185.289 34.0554C185.329 34.2221 185.391 34.381 185.45 34.54C185.532 34.7609 185.614 34.9896 185.661 35.2377C185.728 35.6254 185.685 36.0092 185.646 36.3774L185.618 36.6333C185.563 37.1915 185.575 37.7691 185.587 38.3312C185.626 40.1377 185.814 41.9325 185.998 43.6692C185.998 43.7041 186.006 43.7429 186.01 43.7777C187.161 43.5839 188.249 43.4482 189.4 42.9365C190.779 42.324 192.063 41.5138 193.32 40.6881C194.545 39.8818 195.775 39.06 196.808 38.025C197.842 36.986 198.676 35.7068 198.946 34.2725C199.134 33.2878 199.067 32.2838 199.001 31.303C198.985 31.086 199.263 28.8221 199.298 28.8104C198.265 29.1399 197.431 30.0238 197.165 31.0666L197.141 31.0898Z" fill="#94C5C6"/>
<path d="M12.024 28.6593C4.35777 28.6593 0 33.7608 0 40.9867V96.1847C0 103.411 4.35385 108.512 12.024 108.512C19.6941 108.512 24.048 103.411 24.048 96.1847V92.1763H15.5204V94.9713C15.5204 96.7313 15.3364 100.135 12.024 100.135C8.71162 100.135 8.5276 96.7352 8.5276 94.9713V42.2C8.5276 40.4401 8.71162 37.0365 12.024 37.0365C15.3364 37.0365 15.5204 40.4362 15.5204 42.2V46.1463H24.048V40.9828C24.048 33.7569 19.6941 28.6554 12.024 28.6554V28.6593Z" fill="#94C5C6"/>
<path d="M32.141 29.4462L26.0057 107.725H34.776L35.2184 100.437H42.8103L43.241 107.725H52.0113L45.876 29.4462H32.1371H32.141ZM35.6961 92.6609L39.0124 38.1916L42.3404 92.6609H35.6961Z" fill="#94C5C6"/>
<path d="M167.095 29.4462L160.959 107.725H169.73L170.172 100.437H177.764L178.195 107.725H186.965L180.83 29.4462H167.091H167.095ZM170.65 92.6609L173.966 38.1916L177.294 92.6609H170.65Z" fill="#94C5C6"/>
<path d="M73.1815 49.1855C73.7336 48.8211 76.5566 46.9371 76.5566 41.1068C76.5566 34.3655 72.8761 29.4462 64.2898 29.4462H54.0473V107.725H65.0259C73.6749 107.725 77.9073 102.139 77.9073 95.2155C77.9073 91.7538 76.8032 51.4339 73.1854 49.1894L73.1815 49.1855ZM62.2029 37.5249H64.1058C67.8488 37.5249 68.2169 40.3199 68.2169 41.8356C68.2169 43.3513 67.8488 46.1463 64.1058 46.1463H62.2029V37.521V37.5249ZM65.0259 99.6464H62.2029V54.0428C62.2029 54.0428 64.6813 54.0428 64.7205 54.0428C64.9398 54.0467 65.1512 54.0544 65.3235 54.1668C65.4566 54.2521 65.5623 54.3646 65.6014 54.4576C67.61 59.1017 69.3171 93.2075 69.3171 95.0915C69.3171 97.0956 68.3344 99.6464 65.022 99.6464H65.0259Z" fill="#94C5C6"/>
<path d="M104.892 42.3822C104.892 36.3697 101.517 29.4462 92.6251 29.4462H80.7264V107.725H89.3127V54.0467H91.1529L96.7362 107.725H106L99.6218 53.5001C102.503 51.6161 104.896 48.3986 104.896 42.386L104.892 42.3822ZM91.7637 46.9371H89.3088V37.8272H91.7637C95.8748 37.8272 96.3016 40.44 96.3016 42.3822C96.3016 44.3243 95.8709 46.9371 91.7637 46.9371Z" fill="#94C5C6"/>
<path d="M132.006 96.1847V40.9866C132.006 33.7608 127.652 28.6592 119.982 28.6592C112.311 28.6592 107.958 33.7608 107.958 40.9866V96.1847C107.958 103.411 112.311 108.512 119.982 108.512C127.652 108.512 132.006 103.411 132.006 96.1847ZM123.419 95.1535C123.419 96.9134 123.235 100.135 119.985 100.135C116.736 100.135 116.552 96.9173 116.552 95.1535V42.0178C116.552 40.2578 116.736 37.0364 119.985 37.0364C123.235 37.0364 123.419 40.254 123.419 42.0178V95.1496V95.1535Z" fill="#94C5C6"/>
<path d="M158.998 29.4462H150.408V50.3407L143.662 29.4462H134.95V107.725H143.54V50.3407L150.286 107.725H158.998V29.4462Z" fill="#94C5C6"/>
<path d="M90.6635 120.657C90.5382 118.389 88.8742 116.471 85.738 116.637L81.7561 116.851L82.5862 132L86.5681 131.787C89.7043 131.62 91.1529 129.531 91.0277 127.263L90.6674 120.657H90.6635ZM86.1139 128.806L85.4914 128.841L84.9902 119.68L85.6127 119.646C87.4804 119.545 87.6056 121.041 87.6409 121.657L87.911 126.588C87.9463 127.205 87.9815 128.705 86.1139 128.806Z" fill="#94C5C6"/>
<path d="M99.8567 127.984L99.6962 125.034L104.5 124.774L104.332 121.692L99.5278 121.952L99.3634 118.998L104.837 118.707L104.669 115.625L95.9962 116.091L96.8223 131.236L105.495 130.771L105.326 127.689L99.8567 127.984Z" fill="#94C5C6"/>
<path d="M131.775 121.347C131.966 121.204 132.953 120.467 132.84 118.355C132.706 115.909 131.273 114.199 128.161 114.366L124.445 114.563L125.275 129.713L129.257 129.5C132.393 129.333 133.818 127.224 133.681 124.712C133.611 123.456 133.137 122.092 131.778 121.347H131.775ZM127.562 117.331L128.251 117.292C129.605 117.219 129.797 118.227 129.825 118.777C129.856 119.328 129.778 120.347 128.419 120.421L127.73 120.46L127.558 117.331H127.562ZM129.093 126.569L128.071 126.623L127.891 123.32L128.912 123.266C130.114 123.2 130.518 124.107 130.561 124.836C130.6 125.561 130.295 126.507 129.096 126.573L129.093 126.569Z" fill="#94C5C6"/>
<path d="M140.525 113.703L139.131 128.972L142.311 128.802L142.479 126.143L144.926 126.011L145.38 128.635L148.56 128.465L145.506 113.435L140.525 113.703ZM142.722 123.301L143.188 116.738L144.366 123.212L142.722 123.301Z" fill="#94C5C6"/>
<path d="M161.821 117.265C161.703 115.087 160.341 112.641 157.115 112.815L152.8 113.048L153.63 128.197L156.743 128.03L156.425 122.262L157.095 122.227L159.432 127.887L162.792 127.709L160.125 121.402C161.132 120.661 161.938 119.448 161.817 117.269L161.821 117.265ZM157.15 119.173L156.261 119.219L156.081 115.916L156.97 115.87C158.461 115.788 158.665 116.73 158.704 117.432C158.743 118.138 158.638 119.091 157.15 119.173Z" fill="#94C5C6"/>
<path d="M176.057 116.502C175.94 114.323 174.577 111.877 171.351 112.051L167.036 112.284L167.866 127.433L170.979 127.267L170.662 121.498L171.331 121.464L173.669 127.123L177.028 126.945L174.362 120.638C175.368 119.897 176.174 118.684 176.053 116.505L176.057 116.502ZM171.386 118.409L170.497 118.455L170.317 115.153L171.206 115.106C172.698 115.025 172.901 115.967 172.94 116.668C172.98 117.374 172.874 118.327 171.386 118.409Z" fill="#94C5C6"/>
<path d="M187.283 111.193L184.167 111.36L184.995 126.51L188.111 126.343L187.283 111.193Z" fill="#94C5C6"/>
</g>
<defs>
<clipPath id="clip0_38_12">
<rect width="202" height="132" fill="white"/>
</clipPath>
</defs>
</svg>
